<?xml version='1.0' encoding='utf-8'?>
<svg xmlns="http://www.w3.org/2000/svg" version="1.1" width="600px" height="976px" viewBox="0 0 600 976"> <g id="layer1"> <g style="fill:rgb(0,0,0); fill-opacity:1.0; stroke-linejoin: miter"> <path d="M259.73386,483.8786C259.81952,483.8786,259.92026,483.88556,259.94223,483.8979C259.96133,483.90903,259.98676,483.9281,259.99948,483.93924C260.00772,483.94748,260.0194,483.9522,260.02753,483.9522C260.0304,483.9522,260.03284,483.95163,260.0345,483.95038C260.03574,483.94962,260.03714,483.94925,260.03867,483.94925C260.0468,483.94925,260.05826,483.95947,260.06628,483.9742C260.07584,483.99173,260.09332,484.00604,260.10605,484.00604C260.11877,484.00604,260.1299,484.0124,260.1299,484.02194C260.1299,484.02988,260.1458,484.03784,260.1649,484.03784C260.1983,484.03784,260.33667,484.16666,260.33667,484.19846C260.33667,484.20642,260.3446,484.2128,260.35257,484.2128C260.3621,484.2128,260.36847,484.22232,260.36847,484.23505C260.36847,484.2605,260.40503,484.29388,260.43845,484.29868C260.47504,484.30344,260.5434,484.3734,260.5434,484.4052C260.5434,484.4211,260.55136,484.43863,260.55933,484.4434C260.56885,484.44818,260.57523,484.4736,260.57523,484.49747C260.57523,484.52133,260.58636,484.55472,260.59906,484.5722C260.61658,484.59607,260.62134,484.66446,260.62292,484.90143C260.62292,485.06683,260.61658,485.21313,260.60703,485.22906C260.59747,485.24973,260.60226,485.2879,260.6245,485.35947C260.67065,485.5026,260.68497,485.8191,260.64838,485.90497C260.63406,485.93835,260.62292,485.97653,260.62292,485.99084C260.62292,486.04175,260.56567,486.13397,260.51318,486.16898C260.4623,486.20236,260.4607,486.20715,260.47025,486.2771C260.4798,486.3487,260.4432,486.54272,260.41458,486.57294C260.40665,486.58246,260.40027,486.60474,260.40027,486.6238C260.40027,486.6445,260.39392,486.66357,260.38596,486.66995C260.3605,486.68585,260.34937,486.84012,260.36688,486.9562C260.39233,487.1248,260.40186,487.17093,260.41776,487.17093C260.42572,487.17093,260.43207,487.18683,260.43207,487.2059C260.43207,487.2266,260.4432,487.2568,260.45593,487.2727C260.46866,487.2902,260.4798,487.31564,260.4798,487.32996C260.4798,487.36334,260.5418,487.41583,260.58636,487.42062C260.6261,487.42538,260.73425,487.4874,260.73425,487.5065C260.73425,487.51044,260.7385,487.51312,260.74515,487.51312C260.74924,487.51312,260.75424,487.5121,260.7597,487.50967C260.76346,487.50842,260.7674,487.50784,260.77133,487.50784C260.7824,487.50784,260.79318,487.51257,260.79788,487.5208C260.80423,487.53195,260.83444,487.54306,260.86307,487.54465C260.8917,487.54785,260.91873,487.55737,260.92194,487.56693C260.9241,487.5735,260.9293,487.5778,260.93488,487.5778C260.93744,487.5778,260.9401,487.57687,260.9426,487.5749C260.94516,487.57336,260.94754,487.57263,260.94962,487.57263C260.95398,487.57263,260.9569,487.57584,260.9569,487.58124C260.9569,487.5892,260.98553,487.6051,261.01895,487.61624C261.05392,487.62735,261.08572,487.64645,261.0905,487.6576C261.09528,487.67032,261.11435,487.67984,261.13187,487.67984C261.14935,487.67984,261.16367,487.6878,261.16367,487.69733C261.16367,487.70236,261.16687,487.7055,261.17163,487.7055C261.17438,487.7055,261.17767,487.70444,261.18115,487.70212C261.1837,487.7005,261.18726,487.69977,261.19165,487.69977C261.2177,487.69977,261.2723,487.726,261.30362,487.75458C261.31476,487.76572,261.3418,487.77527,261.36246,487.77527C261.38315,487.77527,261.4102,487.78482,261.4229,487.79755C261.4356,487.81024,261.4722,487.82617,261.504,487.83093C261.53583,487.83728,261.5724,487.8532,261.5851,487.86432C261.59625,487.87546,261.64078,487.89456,261.68372,487.90567C261.72507,487.9168,261.76324,487.93112,261.768,487.9359C261.7728,487.94226,261.82846,487.95975,261.89206,487.97406C261.9684,487.99316,262.01294,488.01224,262.02408,488.0313C262.032,488.04883,262.0479,488.06152,262.05746,488.06152C262.07974,488.06152,262.1354,488.12198,262.16083,488.17285C262.17197,488.19513,262.18787,488.22375,262.19583,488.23648C262.2181,488.27148,262.29285,488.43686,262.29285,488.4496C262.29285,488.45596,262.3183,488.5132,262.3485,488.57843C262.37872,488.64203,262.40894,488.7279,262.41373,488.76767C262.42007,488.80743,262.42963,488.84082,262.43597,488.84082C262.44394,488.84082,262.45187,488.87424,262.45667,488.9156C262.45984,488.95853,262.4789,489.0444,262.49802,489.10645C262.5155,489.17004,262.5314,489.24002,262.5314,489.2607C262.5314,489.28296,262.53778,489.30365,262.54572,489.3084C262.55206,489.31317,262.5632,489.35135,262.568,489.3927C262.58865,489.5581,262.61887,489.66785,262.64114,489.66785C262.6491,489.66785,262.65863,489.69647,262.665,489.72986C262.67932,489.81894,262.75565,490.0527,262.7811,490.08295C262.79224,490.09564,262.80176,490.12268,262.80176,490.14178C262.80176,490.16086,262.80972,490.17676,262.8177,490.17676C262.8272,490.17676,262.8336,490.19266,262.8336,490.21335C262.8336,490.25787,262.91946,490.42487,262.96082,490.46304C262.9958,490.49484,263.07214,490.60776,263.08008,490.63956C263.08487,490.66183,263.10712,490.69843,263.1294,490.72226C263.15005,490.74454,263.16757,490.77475,263.16757,490.78906C263.16757,490.82248,263.19778,490.87973,263.2264,490.9004C263.23914,490.90994,263.25662,490.96878,263.26617,491.03082C263.2789,491.12146,263.28842,491.1485,263.31387,491.15485C263.32977,491.16122,263.3473,491.1851,263.35364,491.2105C263.3576,491.23566,263.36597,491.24872,263.37692,491.24872C263.37912,491.24872,263.38144,491.24817,263.38385,491.2471C263.38727,491.24582,263.39044,491.24524,263.39328,491.24524C263.401,491.24524,263.40613,491.24966,263.40613,491.25665C263.40613,491.26617,263.4109,491.27255,263.41885,491.27255C263.42944,491.27094,263.4398,491.27017,263.44952,491.27017C263.48807,491.27017,263.51746,491.28214,263.51746,491.30118C263.51746,491.31207,263.52023,491.31927,263.52365,491.31927C263.52472,491.31927,263.52585,491.31857,263.52698,491.31708C263.5278,491.31625,263.5291,491.31586,263.5308,491.31586C263.53888,491.31586,263.55573,491.32486,263.57153,491.33936C263.58902,491.35684,263.6256,491.37592,263.64944,491.3807C263.6749,491.38547,263.69876,491.3982,263.70193,491.40933C263.7067,491.42044,263.73853,491.43317,263.7719,491.43954C263.84985,491.45227,263.94687,491.4952,263.98184,491.5334C263.99533,491.54837,264.01025,491.56055,264.01727,491.56055C264.01767,491.56055,264.01807,491.56052,264.01843,491.56042C264.0188,491.56033,264.0192,491.56027,264.01965,491.56027C264.02716,491.56027,264.04666,491.57254,264.06613,491.58905C264.0852,491.60654,264.11862,491.6256,264.13928,491.632C264.15997,491.63834,264.1886,491.65265,264.20132,491.6622C264.2506,491.70038,264.32697,491.73535,264.35718,491.73535C264.37625,491.73535,264.40012,491.74966,264.41284,491.76874C264.4225,491.78265,264.4314,491.78937,264.4386,491.78937C264.4421,491.78937,264.44522,491.78778,264.4478,491.78467C264.45428,491.77332,264.488,491.76776,264.5212,491.76776C264.5532,491.76776,264.58472,491.77292,264.59097,491.78308C264.59573,491.79102,264.64343,491.79898,264.69592,491.79898C264.7484,491.79898,264.78976,491.80533,264.78976,491.81488C264.78976,491.8228,264.81522,491.83078,264.84543,491.83078C264.87564,491.83078,264.9011,491.83875,264.9011,491.84827C264.9011,491.85367,264.9048,491.85687,264.9096,491.85687C264.9119,491.85687,264.91446,491.85617,264.917,491.85464C264.9195,491.8534,264.922,491.85278,264.9244,491.85278C264.9312,491.85278,264.93735,491.85754,264.94086,491.86575C264.94562,491.87848,264.97742,491.88644,265.0204,491.88803C265.0256,491.88824,265.03064,491.88834,265.03543,491.88834C265.06708,491.88834,265.0881,491.88403,265.08398,491.87848C265.07764,491.86737,265.21442,491.83078,265.26053,491.83078C265.27325,491.83078,265.3003,491.81488,265.31937,491.7974C265.33234,491.7844,265.33945,491.7751,265.33966,491.77246L265.337,491.77246C265.3365,491.77274,265.3359,491.7731,265.33527,491.77353C265.33072,491.77606,265.32727,491.77728,265.32492,491.77728C265.3199,491.77728,265.3198,491.77164,265.32413,491.7608C265.32892,491.7465,265.34003,491.73535,265.3464,491.73535C265.35437,491.73535,265.36548,491.72104,265.37027,491.70355C265.3814,491.66696,265.47205,491.62402,265.53885,491.62402C265.5643,491.62402,265.58496,491.61768,265.58496,491.6097C265.58496,491.59695,265.6773,491.57532,265.72098,491.57532C265.7263,491.57532,265.73087,491.57562,265.73447,491.57632C265.73505,491.57645,265.73566,491.5765,265.73627,491.5765C265.74423,491.5765,265.7557,491.56732,265.7631,491.55405C265.77264,491.53815,265.79807,491.5286,265.83148,491.5286C265.8617,491.5286,265.88715,491.52066,265.88715,491.5127C265.88715,491.50314,265.95392,491.4968,266.05414,491.4968C266.15433,491.4968,266.22113,491.49042,266.22113,491.4809C266.22113,491.47134,266.2418,491.465,266.26724,491.465C266.29428,491.465,266.31973,491.45703,266.3245,491.4491C266.32925,491.43954,266.37698,491.43317,266.42947,491.43317C266.49307,491.43317,266.53284,491.42523,266.54874,491.40933C266.5648,491.3943,266.60425,491.38556,266.64276,491.38556C266.6653,491.38556,266.68756,491.38855,266.7046,491.39502C266.7237,491.40295,266.73004,491.42682,266.73004,491.49042C266.73004,491.53815,266.7221,491.57632,266.71414,491.57632C266.7046,491.57632,266.69028,491.5938,266.68234,491.6161C266.67438,491.63834,266.65372,491.6606,266.6394,491.66537C266.6235,491.67175,266.5885,491.68445,266.55988,491.69717C266.53284,491.7099,266.4533,491.7242,266.38492,491.729C266.25134,491.7401,266.1782,491.7624,266.16547,491.79578C266.15927,491.8143,266.29086,491.9616,266.31177,491.9616C266.3124,491.9616,266.31293,491.96146,266.31335,491.96118C266.31763,491.95776,266.3269,491.9563,266.33847,491.9563C266.36984,491.9563,266.41827,491.96707,266.43106,491.9787C266.4397,491.98853,266.45306,491.99457,266.46384,491.99457C266.46698,491.99457,266.4699,491.99405,266.4724,491.99298C266.47382,491.99252,266.47525,491.99228,266.47662,491.99228C266.48456,491.99228,266.4915,491.99966,266.4915,492.0105C266.4915,492.03116,266.5519,492.03436,266.94952,492.03436C267.2008,492.03436,267.42188,492.03436,267.44254,492.03595C267.52365,492.03912,267.46005,492.19656,267.36304,492.23315C267.34552,492.2395,267.3344,492.2602,267.3344,492.28403C267.3344,492.31903,267.32803,492.3238,267.28033,492.3238C267.23578,492.3238,267.21988,492.33334,267.19604,492.3747C267.17535,492.40808,267.14197,492.43512,267.1022,492.44943C267.0688,492.46216,267.03064,492.48444,267.0195,492.50034C267.00836,492.51782,266.9845,492.53055,266.967,492.53055C266.9384,492.53055,266.87317,492.55917,266.85727,492.57986C266.83502,492.6085,266.7237,492.65778,266.68393,492.65778C266.65848,492.65778,266.6346,492.66733,266.63144,492.67688C266.6219,492.7023,266.3754,492.71823,265.96664,492.71982C265.94876,492.7199,265.93152,492.71994,265.91495,492.71994C265.61154,492.71994,265.51895,492.7053,265.38776,492.64346C265.313,492.6069,265.2637,492.59418,265.1985,492.59418C265.10785,492.59418,265.09036,492.6037,264.9822,492.70392C264.95358,492.73096,264.9154,492.7532,264.8995,492.7532C264.8836,492.7532,264.8693,492.75958,264.8693,492.76593C264.8693,492.78662,264.75476,492.83115,264.67368,492.8423C264.65643,492.84467,264.64194,492.84592,264.62924,492.84592C264.5997,492.84592,264.5798,492.83923,264.55756,492.82477C264.52258,492.80252,264.4685,492.79456,264.3015,492.7882C264.18542,492.78342,264.09,492.7739,264.09,492.76752C264.09,492.75958,264.02954,492.7532,263.95798,492.7532C263.86734,492.7532,263.8085,492.74527,263.7735,492.72775C263.74487,492.71344,263.6749,492.69754,263.61923,492.69278C263.56357,492.6896,263.51746,492.68005,263.51746,492.67368C263.51746,492.66733,263.48566,492.65778,263.44907,492.653C263.38068,492.64346,263.2757,492.59894,263.26617,492.5735C263.263,492.56714,263.23755,492.56235,263.2105,492.56235C263.1819,492.56235,263.13098,492.55124,263.096,492.53693C263.061,492.5242,263.01965,492.5099,263.00534,492.5035C262.98944,492.49875,262.9767,492.4892,262.9767,492.48126C262.9767,492.4733,262.94968,492.46695,262.91467,492.46695C262.859,492.46695,262.81448,492.44467,262.7445,492.37946C262.6825,492.3238,262.64114,492.292,262.62683,492.292C262.58072,492.292,262.4121,492.14566,262.37396,492.0725C262.3644,492.05344,262.34534,492.03754,262.3326,492.03754C262.3199,492.03754,262.30875,492.0248,262.30875,492.0089C262.30875,491.99298,262.2976,491.96597,262.28488,491.94846C262.27216,491.92938,262.2658,491.9119,262.26898,491.9071C262.27377,491.90234,262.234,491.85623,262.18152,491.80215C262.1195,491.73853,262.0861,491.69083,262.0861,491.66696C262.0861,491.62085,262.04156,491.52542,262.01135,491.50793C262.0002,491.50156,261.99066,491.48407,261.99066,491.47293C261.99066,491.4602,261.9843,491.4491,261.97635,491.4491C261.9684,491.4491,261.95728,491.41568,261.9509,491.37433C261.94296,491.32025,261.92548,491.28687,261.8857,491.2471C261.8555,491.21848,261.8348,491.18668,261.83957,491.1787C261.84436,491.16916,261.84277,491.1628,261.8348,491.1628C261.82684,491.1628,261.81253,491.1342,261.80142,491.09918C261.79187,491.0642,261.768,491.02762,261.74734,491.0181C261.70282,490.99265,261.67258,490.96243,261.67258,490.94016C261.67258,490.9306,261.6535,490.90518,261.63123,490.8845C261.6098,490.86487,261.59842,490.85574,261.5886,490.85574C261.5809,490.85574,261.57422,490.8613,261.56445,490.87177C261.5374,490.89722,261.52628,490.95923,261.49606,491.2105C261.46744,491.45544,261.47696,491.73535,261.51514,491.73535C261.5231,491.73535,261.52945,491.77036,261.52945,491.8133C261.52945,491.8594,261.539,491.90076,261.55173,491.91348C261.56287,491.9262,261.57718,491.96436,261.58194,491.99936C261.6376,492.4224,261.6392,492.46216,261.61533,492.6053C261.6026,492.68164,261.5867,492.785,261.58035,492.83273C261.57397,492.88043,261.55966,492.9361,261.54855,492.9552C261.5072,493.0347,261.49765,493.0554,261.49765,493.07922C261.49765,493.09195,261.48334,493.12854,261.46423,493.16034C261.43402,493.216,261.43243,493.2367,261.4404,493.4673C261.44992,493.73926,261.46423,493.8983,261.48016,493.8983C261.4865,493.8983,261.49924,493.9317,261.51196,493.97305C261.5231,494.016,261.54218,494.06845,261.5549,494.09232C261.56763,494.1146,261.57718,494.15436,261.57718,494.17978C261.57718,494.20364,261.5867,494.24182,261.59784,494.26407C261.60898,494.28635,261.62805,494.36108,261.64078,494.43106C261.6535,494.50104,261.67258,494.5758,261.68372,494.59805C261.69485,494.62033,261.7044,494.65533,261.7044,494.67917C261.7044,494.70145,261.71075,494.72528,261.71872,494.73483C261.73303,494.74915,261.74255,494.80798,261.76166,494.98135L261.77118,495.0704L260.78036,495.07996C260.12512,495.0863,259.78638,495.09586,259.7832,495.107C259.77844,495.11813,259.34586,495.1229,258.4584,495.1229L257.13995,495.1229L257.13995,495.01474C257.13995,494.9559,257.1511,494.8048,257.1654,494.67758C257.17813,494.55035,257.18927,494.41357,257.18927,494.37222C257.18927,494.33087,257.19562,494.29272,257.20517,494.28793C257.21313,494.2816,257.21948,494.26407,257.21948,494.24658C257.21948,494.2291,257.23062,494.1973,257.24493,494.1766C257.25766,494.15594,257.26718,494.12253,257.2656,494.10187C257.26242,494.08118,257.27673,494.03348,257.29742,493.9953C257.32285,493.9476,257.3324,493.90625,257.32764,493.8649C257.32446,493.8299,257.32764,493.80286,257.33398,493.80286C257.35944,493.80286,257.41034,493.6995,257.41034,493.65018C257.41034,493.62317,257.42148,493.59134,257.43417,493.5802C257.4485,493.5691,257.45486,493.5468,257.4501,493.5309C257.4453,493.5166,257.4485,493.4991,257.45804,493.49274C257.4835,493.47684,257.47714,493.35596,257.4469,493.32257C257.42465,493.2987,257.42465,493.28757,257.44055,493.25577C257.45963,493.22238,257.45804,493.21442,257.42783,493.1842C257.40875,493.16513,257.3976,493.14285,257.40237,493.1349C257.40875,493.12537,257.40396,493.119,257.39444,493.119C257.37534,493.119,257.38965,492.72934,257.41034,492.6896C257.41827,492.67688,257.42783,492.59894,257.43417,492.51782C257.44055,492.4383,257.4517,492.37152,257.45804,492.37152C257.46442,492.37152,257.466,492.31427,257.4612,492.2443C257.45645,492.16476,257.45963,492.11703,257.47076,492.11703C257.47873,492.11703,257.49146,492.0773,257.4978,492.02798C257.50894,491.93097,257.5487,491.78943,257.59958,491.65582C257.62027,491.60175,257.633,491.53177,257.633,491.46976C257.633,491.40613,257.63934,491.36957,257.65366,491.36478C257.66956,491.36002,257.66956,491.35046,257.65366,491.32343C257.62662,491.2789,257.62662,491.05624,257.65366,491.04672C257.66797,491.04034,257.66797,491.03558,257.65366,491.01968C257.64542,491.01102,257.63617,491.00674,257.62607,491.00674C257.5953,491.00674,257.5564,491.04642,257.51212,491.12305C257.42624,491.27414,257.3308,491.4761,257.3308,491.5111C257.3308,491.527,257.32446,491.5445,257.31808,491.5477C257.31174,491.5493,257.2847,491.58743,257.25925,491.632C257.2338,491.67493,257.19403,491.73218,257.16858,491.75604C257.14474,491.78146,257.12405,491.8117,257.12405,491.8244C257.12405,491.83713,257.1177,491.84668,257.10815,491.84668C257.10022,491.84668,257.09225,491.86737,257.09225,491.8944C257.09225,491.91983,257.08588,491.9421,257.07635,491.9421C257.0684,491.9421,257.06046,491.94846,257.06046,491.958C257.06046,491.96597,257.035,491.99777,257.0048,492.02798C256.97455,492.05978,256.94913,492.0932,256.94913,492.1043C256.94913,492.11545,256.93323,492.13297,256.91412,492.1409C256.89505,492.15045,256.87277,492.1711,256.86322,492.187C256.8537,492.20453,256.8346,492.23157,256.8219,492.24747C256.80917,492.26337,256.79486,492.292,256.79007,492.31107C256.7853,492.33017,256.76782,492.35242,256.7519,492.36197C256.736,492.37152,256.7042,492.39536,256.68195,492.41446C256.65967,492.43512,256.6358,492.45102,256.62946,492.45102C256.62308,492.45102,256.59924,492.46854,256.57697,492.49078C256.5547,492.51306,256.52606,492.53055,256.51175,492.53055C256.49902,492.53055,256.4879,492.53693,256.4879,492.54645C256.4879,492.5544,256.46246,492.56235,256.43225,492.56235C256.402,492.56235,256.3766,492.56873,256.3766,492.57828C256.3766,492.5862,256.34634,492.59418,256.3082,492.59418C256.27002,492.59418,256.23184,492.6021,256.2239,492.61008C256.21436,492.61963,256.1253,492.63394,256.0251,492.64505C255.9249,492.6546,255.8406,492.66733,255.83585,492.6721C255.81357,492.69754,255.68475,492.7532,255.64499,492.7532C255.61955,492.7532,255.59727,492.76117,255.5941,492.7707C255.58615,492.79614,255.35555,492.8216,255.11221,492.8216C254.8832,492.8216,254.73688,492.80252,254.72574,492.7707C254.7215,492.75797,254.6738,492.75214,254.61963,492.75214C254.55206,492.75214,254.47444,492.76117,254.45856,492.77707C254.44186,492.79376,254.3834,492.80212,254.32497,492.80212C254.26651,492.80212,254.20807,492.79376,254.19138,492.77707C254.17865,492.76276,254.13889,492.7532,254.09753,492.7532C254.04187,492.7532,254.01643,492.74365,253.97826,492.70868C253.88744,492.62344,253.85187,492.60944,253.54375,492.60944C253.50111,492.60944,253.45328,492.60968,253.39935,492.61008C253.34293,492.61075,253.28929,492.61105,253.23877,492.61105C252.92761,492.61105,252.73457,492.5988,252.73457,492.57828C252.73457,492.5719,252.70753,492.56235,252.67413,492.556C252.64232,492.55124,252.57234,492.5401,252.51987,492.53055C252.46738,492.521,252.37991,492.5083,252.32425,492.5035C252.27017,492.50034,252.22565,492.4892,252.22565,492.48126C252.22565,492.4733,252.21292,492.46695,252.19702,492.46695C252.1811,492.46695,252.15407,492.4558,252.13658,492.44308C252.12068,492.43036,252.08728,492.41922,252.06342,492.41922C252.03957,492.41922,252.01411,492.40967,252.00775,492.39856C252.0014,492.38583,251.9839,492.37152,251.97118,492.36673C251.93619,492.35083,251.89008,492.32062,251.85349,492.28723C251.836,492.27292,251.80896,492.2602,251.79465,492.2602C251.77875,492.2602,251.76125,492.25223,251.75647,492.2443C251.75171,492.23474,251.7199,492.22836,251.6849,492.22836C251.64674,492.22836,251.62129,492.22043,251.61493,492.20453C251.61015,492.1918,251.59584,492.18066,251.58313,492.18066C251.54337,492.18066,251.46225,492.1266,251.46225,492.09796C251.46225,492.08365,251.45271,492.06137,251.44157,492.05026C251.40659,492.01526,251.38274,491.96277,251.38274,491.91983C251.38274,491.84827,251.39864,491.83078,251.46384,491.83078C251.49883,491.83078,251.52586,491.8228,251.52586,491.8133C251.52586,491.8063,251.53099,491.80188,251.53871,491.80188C251.54155,491.80188,251.54472,491.80246,251.54813,491.80374C251.55093,491.8048,251.55383,491.8053,251.55669,491.8053C251.56671,491.8053,251.57622,491.79898,251.57994,491.78784C251.58548,491.77454,251.5972,491.76895,251.62856,491.76895C251.6422,491.76895,251.65955,491.77002,251.68173,491.77194C251.73103,491.77512,251.80101,491.78625,251.83441,491.79578C251.85706,491.80194,251.87259,491.80518,251.8841,491.80518C251.89925,491.80518,251.90738,491.7996,251.91551,491.78784C251.92307,491.77728,251.9281,491.77206,251.93402,491.77206C251.9406,491.77206,251.94826,491.77847,251.96164,491.79102C251.97386,491.80325,251.98274,491.80936,251.99092,491.80936C251.99658,491.80936,252.00189,491.80643,252.00775,491.80057C252.01909,491.78925,252.04234,491.78326,252.06245,491.78326C252.0819,491.78326,252.0984,491.78885,252.0984,491.80057C252.0984,491.8056,252.1016,491.80872,252.10635,491.80872C252.10912,491.80872,252.11241,491.80768,252.1159,491.80533C252.11932,491.80362,252.12315,491.80273,252.12695,491.80273C252.13376,491.80273,252.14046,491.80557,252.14453,491.8117C252.15404,491.82706,252.20987,491.83432,252.27084,491.83432C252.34258,491.83432,252.42143,491.82425,252.44034,491.80533C252.45625,491.78943,252.50237,491.7767,252.56439,491.77194C252.61847,491.76874,252.67891,491.76398,252.69958,491.7624C252.71866,491.7608,252.73457,491.75443,252.73457,491.7465C252.73457,491.7401,252.74411,491.73535,252.75525,491.73535C252.78705,491.73376,252.82681,491.6956,252.83795,491.65424C252.8459,491.62085,252.83795,491.6097,252.78546,491.5795C252.75047,491.56042,252.69958,491.5445,252.67255,491.5445C252.64551,491.5445,252.62325,491.53815,252.62325,491.53177C252.62325,491.52383,252.58665,491.50314,252.54372,491.48407C252.49919,491.465,252.43875,491.42365,252.40854,491.3918C252.35924,491.34094,252.35287,491.32663,252.35287,491.2471C252.35287,491.19302,252.36082,491.15167,252.37514,491.13736C252.39017,491.1232,252.42877,491.11545,252.46257,491.11545C252.48958,491.11545,252.5135,491.12042,252.51987,491.131C252.52464,491.13895,252.54372,491.1469,252.56122,491.1469C252.57712,491.1469,252.59938,491.16122,252.61052,491.17712C252.61855,491.1905,252.6322,491.2005,252.64392,491.2005C252.64613,491.2005,252.64827,491.20016,252.65028,491.1994C252.65248,491.19846,252.6548,491.198,252.65715,491.198C252.66669,491.198,252.67667,491.2054,252.6805,491.2169C252.68527,491.2312,252.70912,491.24234,252.73297,491.24234C252.7791,491.24393,252.82999,491.27573,252.82999,491.30435C252.82999,491.31216,252.8339,491.31604,252.83896,491.31604C252.84113,491.31604,252.84352,491.31534,252.8459,491.3139C252.84888,491.3121,252.85187,491.31122,252.85442,491.31122C252.85869,491.31122,252.8618,491.3137,252.8618,491.31866C252.8618,491.32822,252.89838,491.33936,252.94131,491.3457C252.98586,491.35208,253.02084,491.3632,253.02084,491.37274C253.02084,491.37778,253.02657,491.3809,253.0348,491.3809C253.03958,491.3809,253.04521,491.37985,253.05106,491.3775C253.05577,491.37607,253.06056,491.37537,253.06538,491.37537C253.08171,491.37537,253.09834,491.38345,253.11308,491.3982C253.13058,491.41568,253.16875,491.43317,253.20056,491.43954C253.23553,491.4459,253.2753,491.46976,253.30234,491.50156C253.32779,491.53018,253.36278,491.55563,253.37868,491.5588C253.4232,491.5652,253.46616,491.59064,253.46616,491.60812C253.46616,491.61768,253.47728,491.62402,253.49,491.62402C253.50273,491.62402,253.51385,491.63516,253.51385,491.64948C253.51385,491.65967,253.51793,491.66678,253.52281,491.66678C253.52403,491.66678,253.52531,491.66632,253.52658,491.66537C253.52753,491.6648,253.5286,491.66452,253.52975,491.66452C253.5383,491.66452,253.55197,491.67938,253.56317,491.70038C253.58861,491.75125,253.62518,491.78943,253.657,491.79578C253.66972,491.79898,253.68245,491.8085,253.68562,491.81647C253.68881,491.8244,253.70152,491.83078,253.71266,491.83078C253.72539,491.83078,253.74129,491.84033,253.74765,491.84985C253.7556,491.86258,253.80173,491.87054,253.8717,491.87213C253.93373,491.87213,254.0053,491.8753,254.03075,491.8769C254.04425,491.87817,254.0568,491.8788,254.06831,491.8788C254.11374,491.8788,254.14337,491.8689,254.15479,491.84985C254.16434,491.83713,254.22159,491.83078,254.34882,491.83078C254.46014,491.83078,254.53171,491.8244,254.53171,491.81488C254.53171,491.80533,254.54921,491.79898,254.56989,491.79898C254.59056,491.79898,254.61124,491.79102,254.61441,491.78146C254.6176,491.77194,254.63986,491.7624,254.66371,491.7624C254.68758,491.7608,254.70667,491.75284,254.70667,491.7465C254.70667,491.742,254.70918,491.74005,254.71281,491.74005C254.71562,491.74005,254.71909,491.7412,254.72256,491.74332C254.72551,491.74478,254.72816,491.7455,254.73041,491.7455C254.73543,491.7455,254.73846,491.74194,254.73846,491.73535C254.73846,491.72836,254.74188,491.72394,254.74683,491.72394C254.74863,491.72394,254.75064,491.72452,254.75278,491.7258C254.76704,491.7346,254.84572,491.74185,254.8931,491.74185C254.91437,491.74185,254.92932,491.7404,254.92932,491.73694C254.92932,491.72412,255.0057,491.69095,255.02977,491.69095C255.0326,491.69095,255.0347,491.6914,255.03587,491.6924C255.0365,491.69302,255.03738,491.69333,255.0385,491.69333C255.046,491.69333,255.064,491.67996,255.08199,491.6606C255.1056,491.6357,255.1238,491.62592,255.14995,491.62592C255.15552,491.62592,255.16145,491.62637,255.16788,491.6272C255.17583,491.6284,255.1828,491.629,255.18877,491.629C255.20665,491.629,255.21559,491.62363,255.21559,491.61288C255.21559,491.60175,255.23308,491.59064,255.25534,491.58905C255.27762,491.58905,255.30464,491.58743,255.31578,491.58585C255.32532,491.58426,255.3444,491.57153,255.35713,491.55563C255.36877,491.53885,255.38461,491.53043,255.40721,491.53043C255.41241,491.53043,255.41797,491.53088,255.42392,491.53177C255.43211,491.53293,255.43906,491.53354,255.44489,491.53354C255.4628,491.53354,255.47005,491.52786,255.47005,491.51587C255.47005,491.50452,255.47655,491.49884,255.49185,491.49884C255.49797,491.49884,255.5055,491.49976,255.51457,491.50156C255.51794,491.50232,255.52184,491.5027,255.52615,491.5027C255.58508,491.5027,255.72452,491.43567,255.72452,491.40454C255.72452,491.39175,255.75227,491.38205,255.78464,491.38205C255.79253,491.38205,255.8007,491.38263,255.8088,491.38388C255.81517,491.38388,255.81993,491.3775,255.81993,491.36957C255.81993,491.36002,255.83424,491.35367,255.85175,491.35367C255.87242,491.35367,255.88673,491.33936,255.8931,491.3139C255.89786,491.29163,255.909,491.27414,255.91695,491.27414C255.9249,491.27414,255.93126,491.25983,255.93126,491.24075C255.93126,491.22626,255.93669,491.21725,255.94307,491.21725C255.94441,491.21725,255.9458,491.21765,255.94717,491.21848C255.94815,491.21912,255.9491,491.21945,255.95,491.21945C255.95795,491.21945,255.96307,491.195,255.96307,491.15643C255.96307,491.1167,255.97102,491.08328,255.97897,491.08328C255.98851,491.08328,255.99487,491.06738,255.99487,491.04672C255.99487,491.02603,256.01236,490.99265,256.03464,490.97195C256.05692,490.9513,256.0744,490.92267,256.0744,490.90677C256.0744,490.89087,256.08234,490.87335,256.0903,490.8686C256.09985,490.86383,256.1062,490.84155,256.1062,490.81927C256.1062,490.79703,256.11575,490.78113,256.13007,490.78113C256.14438,490.78113,256.14914,490.77158,256.14438,490.75726C256.138,490.74136,256.14438,490.7334,256.16187,490.7334C256.17618,490.7334,256.18414,490.72705,256.17935,490.7191C256.1604,490.68845,256.23245,490.5681,256.26535,490.5681C256.2683,490.5681,256.27097,490.5691,256.2732,490.5712C256.2744,490.57242,256.27545,490.573,256.2763,490.573C256.27988,490.573,256.27994,490.56274,256.27478,490.54733C256.2625,490.51056,256.2916,490.37494,256.3094,490.37494C256.31006,490.37494,256.31073,490.37515,256.31137,490.37555C256.31155,490.37564,256.31177,490.3757,256.31198,490.3757C256.32608,490.3757,256.3925,490.16818,256.3925,490.12427C256.3925,490.11,256.40042,490.09726,256.4084,490.09726C256.41794,490.09726,256.4243,490.07974,256.4243,490.0575C256.4243,490.03522,256.43225,490.01773,256.4402,490.01773C256.44974,490.01773,256.4561,490.00024,256.4561,489.97797C256.4561,489.9557,256.46246,489.9382,256.4704,489.9382C256.47836,489.9382,256.4879,489.91434,256.49268,489.8857C256.51175,489.76804,256.58493,489.5422,256.63104,489.45792C256.6406,489.44202,256.64694,489.3943,256.64694,489.35135C256.64694,489.30682,256.6549,489.26706,256.66284,489.2623C256.6724,489.2575,256.67874,489.2098,256.67874,489.15732C256.67874,489.10483,256.68512,489.06348,256.69464,489.06348C256.7042,489.06348,256.71057,489.02374,256.71057,488.976C256.71057,488.9283,256.7185,488.88855,256.72647,488.88855C256.736,488.88855,256.74237,488.87424,256.74237,488.85675C256.74237,488.84106,256.74875,488.82922,256.75806,488.82922C256.75916,488.82922,256.76028,488.82938,256.76144,488.8297C256.76193,488.82977,256.76242,488.8298,256.76288,488.8298C256.77454,488.8298,256.7788,488.8106,256.77576,488.77084C256.77316,488.7345,256.7748,488.71933,256.78415,488.71933C256.78625,488.71933,256.78873,488.7201,256.79166,488.72156C256.79648,488.72498,256.80008,488.72662,256.80215,488.72662C256.80484,488.72662,256.8048,488.7238,256.8012,488.71838C256.79007,488.70087,256.8235,488.61816,256.84256,488.61816C256.8489,488.61816,256.8537,488.60706,256.8537,488.59433C256.8537,488.58002,256.86484,488.5657,256.87756,488.5609C256.89026,488.55457,256.89664,488.545,256.89188,488.53708C256.87805,488.5125,256.9354,488.3871,256.9594,488.3871C256.96027,488.3871,256.9611,488.38724,256.96185,488.38757C256.9635,488.38812,256.96512,488.38837,256.9667,488.38837C256.97437,488.38837,256.98093,488.3822,256.98093,488.37167C256.98093,488.35895,256.99524,488.33987,257.01273,488.32715C257.0302,488.31442,257.03976,488.3001,257.03342,488.29532C257.02228,488.28418,257.07318,488.2333,257.13995,488.19196C257.16223,488.17764,257.18927,488.1522,257.2004,488.13788C257.21313,488.1204,257.24176,488.10925,257.27673,488.10925C257.30695,488.10925,257.32922,488.1029,257.32446,488.09494C257.31967,488.08698,257.34036,488.07587,257.37057,488.07108C257.4008,488.06473,257.431,488.04883,257.43896,488.03452C257.4501,488.017,257.47714,488.01065,257.53598,488.01065C257.5805,488.01065,257.6171,488.00427,257.6171,487.99634C257.6171,487.97247,257.7014,487.9391,257.78885,487.92636C257.83337,487.91998,257.86676,487.90887,257.862,487.9009C257.85724,487.89297,257.87155,487.8866,257.8938,487.8866C257.91925,487.8866,257.95743,487.86432,257.9924,487.83093C258.03775,487.78696,258.05936,487.77267,258.08594,487.77267C258.09012,487.77267,258.09442,487.77304,258.09897,487.77368C258.10535,487.77368,258.1101,487.76892,258.1101,487.75937C258.1101,487.74506,258.19757,487.70212,258.3296,487.64963C258.35663,487.6369,258.38046,487.61783,258.38046,487.6067C258.38046,487.59238,258.39798,487.5844,258.4266,487.5844C258.47272,487.5844,258.557,487.54785,258.59995,487.5081C258.61075,487.49863,258.62845,487.4915,258.6423,487.4915C258.64474,487.4915,258.6471,487.4917,258.64926,487.4922C258.6506,487.4925,258.65204,487.4926,258.65353,487.4926C258.66797,487.4926,258.6889,487.47925,258.7033,487.46198C258.71698,487.4442,258.73413,487.4323,258.74377,487.4323C258.74536,487.4323,258.74673,487.43265,258.74786,487.43332C258.74863,487.4339,258.74945,487.43417,258.75034,487.43417C258.7568,487.43417,258.76593,487.41934,258.7701,487.39835C258.7749,487.37448,258.786,487.33154,258.79715,487.3061C258.8401,487.18842,258.856,486.83853,258.8226,486.76218C258.81146,486.73834,258.79874,486.71448,258.79398,486.70972C258.7749,486.6938,258.73035,486.56497,258.73035,486.5268C258.73035,486.50613,258.724,486.48386,258.71445,486.4791C258.7065,486.47433,258.69855,486.4314,258.69855,486.38525C258.69855,486.2819,258.66516,486.21033,258.60312,486.18488C258.57132,486.17215,258.55383,486.1515,258.54587,486.1165C258.52997,486.04175,258.495,485.97812,258.46796,485.97812C258.4425,485.97812,258.43295,485.92087,258.41864,485.65527C258.4091,485.47714,258.4107,485.4692,258.44092,485.4692C258.46796,485.4692,258.47113,485.45966,258.46475,485.3849C258.46158,485.34036,258.45682,485.27835,258.45523,485.24973C258.45364,485.2227,258.44727,485.19882,258.44092,485.19882C258.43295,485.19882,258.4282,485.1527,258.4282,485.09546C258.4282,485.0382,258.43295,484.99207,258.44092,484.99207C258.45523,484.99207,258.45523,484.79645,258.44092,484.78534C258.43454,484.78055,258.43613,484.72968,258.4441,484.674C258.45523,484.5913,258.46637,484.56586,258.49817,484.542C258.52838,484.5197,258.5411,484.49268,258.54904,484.43384C258.55542,484.3909,258.56497,484.35593,258.5729,484.35593C258.58087,484.35593,258.58722,484.3448,258.58722,484.33206C258.58722,484.31934,258.5936,484.3082,258.60153,484.3082C258.61743,484.3082,258.68106,484.25732,258.7383,484.20007C258.7574,484.18097,258.78125,484.16507,258.7908,484.16507C258.80032,484.16507,258.81625,484.15076,258.82578,484.13327C258.83533,484.1142,258.8592,484.10147,258.88144,484.10147C258.90372,484.10147,258.93552,484.08713,258.953,484.06964C258.97052,484.05215,259.00232,484.03784,259.02298,484.03784C259.04526,484.03784,259.06754,484.02988,259.07388,484.02036C259.07736,484.01337,259.09024,484.00894,259.105,484.00894C259.1104,484.00894,259.11606,484.00952,259.12158,484.0108C259.12674,484.0116,259.1317,484.012,259.13626,484.012C259.14993,484.012,259.15976,484.00842,259.15976,484.00125C259.15976,483.99585,259.16638,483.99268,259.1761,483.99268C259.1807,483.99268,259.18597,483.99338,259.1916,483.9949C259.1972,483.99643,259.20245,483.99713,259.20706,483.99713C259.21677,483.99713,259.2234,483.99393,259.2234,483.98853C259.2234,483.9806,259.24246,483.9742,259.26474,483.9742C259.287,483.9742,259.3013,483.96786,259.29495,483.9583C259.28857,483.9488,259.31403,483.9424,259.35858,483.9424C259.4031,483.9424,259.42853,483.93607,259.42218,483.9265C259.41742,483.91696,259.4206,483.9106,259.42853,483.9106C259.43808,483.9106,259.44604,483.91696,259.44604,483.9265C259.44604,483.9377,259.45886,483.94263,259.4747,483.94263C259.49704,483.94263,259.5254,483.9328,259.53192,483.91696C259.5369,483.9045,259.54773,483.89792,259.56134,483.89792C259.56512,483.89792,259.56912,483.89844,259.57327,483.89948C259.5789,483.901,259.58417,483.9017,259.58875,483.9017C259.59845,483.9017,259.60507,483.89853,259.60507,483.89313C259.60507,483.88318,259.66455,483.8786,259.73386,483.8786 Z"/> </g> </g> </svg>