<?xml version="1.0" encoding="UTF-8" standalone="no"?>
<svg
   xmlns:dc="http://purl.org/dc/elements/1.1/"
   xmlns:cc="http://creativecommons.org/ns#"
   xmlns:rdf="http://www.w3.org/1999/02/22-rdf-syntax-ns#"
   xmlns:svg="http://www.w3.org/2000/svg"
   xmlns="http://www.w3.org/2000/svg"
   xmlns:sodipodi="http://sodipodi.sourceforge.net/DTD/sodipodi-0.dtd"
   xmlns:inkscape="http://www.inkscape.org/namespaces/inkscape"
   width="752pt"
   height="752pt"
   version="1.1"
   viewBox="0 0 752 752"
   id="svg4"
   sodipodi:docname="flowers.svg"
   inkscape:version="0.92.5 (2060ec1f9f, 2020-04-08)">
  <metadata
     id="metadata10">
    <rdf:RDF>
      <cc:Work
         rdf:about="">
        <dc:format>image/svg+xml</dc:format>
        <dc:type
           rdf:resource="http://purl.org/dc/dcmitype/StillImage" />
      </cc:Work>
    </rdf:RDF>
  </metadata>
  <defs
     id="defs8" />
  <sodipodi:namedview
     pagecolor="#ffffff"
     bordercolor="#666666"
     borderopacity="1"
     objecttolerance="10"
     gridtolerance="10"
     guidetolerance="10"
     inkscape:pageopacity="0"
     inkscape:pageshadow="2"
     inkscape:window-width="1856"
     inkscape:window-height="1016"
     id="namedview6"
     showgrid="false"
     inkscape:zoom="0.23537234"
     inkscape:cx="501.33333"
     inkscape:cy="501.33333"
     inkscape:window-x="64"
     inkscape:window-y="27"
     inkscape:window-maximized="1"
     inkscape:current-layer="svg4" />
  <path
     d="m 620.97508,429.07271 c -24.29791,-15.72249 -51.96464,3.77864 -62.42918,13.90649 -6.31247,6.10006 -16.86494,15.77386 -24.27541,22.52631 6.90562,-7.26443 16.82106,-17.6045 23.06061,-23.77861 10.34006,-10.24482 30.44878,-37.46388 15.26845,-62.11423 -15.18072,-24.64847 -21.55898,-21.23654 -29.18898,-31.95041 -10.74294,7.59401 -15.64208,2.27007 -38.10129,20.53353 -22.45321,18.25632 -12.45639,50.58673 -6.0635,63.67397 3.09755,6.35634 7.57208,16.05938 11.35802,24.37102 -0.21237,-0.43206 -0.51262,-0.6664 -0.87144,-0.71035 -4.21806,-7.84296 -8.97809,-16.80625 -12.04641,-22.88438 -6.5468,-13.00568 -26.22322,-40.54776 -54.35112,-33.72199 -21.22153,5.1481 -25.71142,10.45723 -32.02352,14.46288 1.86737,-5.67525 3.81538,-11.34339 5.63871,-17.05539 2.21157,-5.81455 4.35716,-11.65835 6.56142,-17.4654 0.82751,1.25224 1.655,2.58501 2.46054,4.12282 17.63375,-9.18299 23.87985,-0.21969 61.2125,-22.98749 37.34015,-22.77378 28.93403,-73.20867 22.03515,-94.10026 -4.16688,-12.59569 -10.42067,-33.33392 -14.74859,-47.8553 5.34588,14.17005 12.92508,34.47748 17.253,47.00607 7.16189,20.80535 31.02805,66.02483 74.52658,61.53494 43.50601,-4.50357 43.05233,-15.41504 62.63351,-18.78443 -3.28802,-19.60367 7.1619,-22.78127 -2.95114,-65.31433 -10.12034,-42.54618 -60.69321,-50.14055 -82.68336,-50.03183 -13.26197,0.0732 -34.91619,-0.38811 -50.05246,-0.75426 15.12935,-0.71034 36.76087,-1.64035 50.01683,-1.87469 21.99016,-0.38079 72.38005,-9.10258 81.54919,-51.85403 9.16105,-42.76552 -1.35477,-45.70317 1.4939,-65.37995 C 626.5953,69.656888 626.80714,58.730983 583.2205,55.208619 539.62637,51.686255 516.77949,97.43235 510.09245,118.38393 c -4.04222,12.63225 -11.16023,33.08459 -16.18385,47.37351 4.00565,-14.60218 9.79096,-35.46545 13.67213,-48.15713 C 514.01768,96.56812 521.29675,45.951389 483.45905,24.026836 445.60711,2.102295 439.54247,11.17488 421.71789,2.38725 c -8.86093,17.802277 -19.18562,14.22124 -36.00725,54.585457 -16.82106,40.356533 19.61867,76.240053 37.48638,89.077953 8.67047,6.23917 21.56648,15.95683 32.55031,24.3204 -0.58584,-0.42473 -1.16435,-0.51261 -1.66964,-0.32953 -11.2116,-7.41086 -23.96796,-15.93489 -32.40408,-21.83643 -18.01468,-12.61763 -63.90831,-35.18801 -96.45112,-5.97559 -32.55031,29.21148 -25.76204,37.76571 -39.6329,52.00775 14.17737,13.92842 7.59401,22.64256 40.78958,51.11541 33.1952,28.47285 78.56842,4.89183 96.3049,-8.12118 10.69157,-7.85028 28.46535,-20.20357 40.92831,-28.80092 -11.82669,9.4614 -28.77279,22.93501 -39.35356,30.90996 -17.56796,13.24002 -53.20944,49.90622 -35.48796,89.88969 6.83963,15.42236 12.54432,24.2904 17.52407,30.42628 -4.19612,9.16838 -8.20909,18.53453 -12.28074,27.90106 -4.93569,12.91046 -10.10572,25.71143 -14.20662,38.81179 -2.05785,6.53218 -4.56226,12.8739 -6.18799,19.43495 -1.67697,6.55412 -3.3392,13.02763 -4.97224,19.39184 -1.8381,6.32709 -2.79742,12.75672 -3.85926,19.03189 -1.06183,6.28322 -2.11634,12.44177 -3.12699,18.43198 -0.34416,3.06832 -0.60048,5.99022 -0.8934,8.99273 -2.93652,-4.15208 -5.90229,-8.19448 -8.98541,-11.73146 -10.12034,-12.40523 -20.07984,-24.61286 -29.71764,-36.41781 -3.10487,-3.77863 -6.11469,-7.4476 -9.14644,-11.14561 3.53698,-7.52802 8.5606,-14.1262 10.79411,-38.44622 3.09755,-33.62076 -32.02352,-51.66469 -48.14964,-57.00944 -9.73228,-3.22954 -25.49959,-8.91211 -36.48342,-12.91777 11.24817,3.21473 27.34429,7.87222 37.11332,10.98458 16.18386,5.1481 55.20036,11.2043 72.45316,-17.81691 17.26031,-29.02025 10.28889,-33.77447 17.22376,-47.45974 -13.65753,-6.99354 -10.81605,-14.93156 -41.82255,-28.26664 -31.02806,-13.33525 -59.03036,14.49964 -69.09934,28.17103 -6.07082,8.26028 -16.33758,21.47087 -23.54428,30.68312 6.53218,-9.70305 15.92759,-23.54429 21.90392,-31.8698 9.90063,-13.79663 27.71735,-49.03449 5.44093,-74.41597 -22.26948,-25.37398 -28.94152,-20.21857 -39.81475,-31.04867 -10.87472,10.83066 -17.54601,5.67525 -39.81475,31.04867 -22.26949,25.38148 -4.4597,60.6201 5.44093,74.41597 4.8039,6.70053 11.84132,17.00404 17.8169,25.82766 -0.32954,-0.46134 -0.72499,-0.6664 -1.14239,-0.65907 -6.37095,-8.19447 -13.61346,-17.57525 -18.31482,-23.96797 -10.06916,-13.67944 -38.07878,-41.51508 -69.09184,-28.17852 -31.013056,13.33527 -28.171022,21.27404 -41.835661,28.26664 6.942175,13.68676 -0.03662,18.4393 17.223754,47.45975 17.260307,29.02026 56.270797,22.96499 72.453157,17.8169 9.75422,-3.10487 25.82767,-7.76236 37.06833,-10.96995 -10.98458,4.00565 -26.72188,9.68841 -36.4403,12.91045 -16.12537,5.34587 -51.24664,23.38305 -48.14964,57.00943 3.09756,33.62077 11.52637,33.36393 13.96497,48.52271 15.1659,-2.37261 17.52407,5.72662 50.45551,-1.71358 32.93837,-7.4403 39.22984,-46.42117 39.33857,-63.40965 0.0586,-10.23751 0.60048,-26.95622 1.01057,-38.64306 0.41742,11.68028 0.95199,28.39786 1.0179,38.64306 0.1099,16.9821 6.40041,55.96899 39.33859,63.40965 9.78365,2.21157 16.83569,3.03906 22.35759,3.18547 4.18882,6.59068 8.47269,13.32064 12.83734,20.18296 8.02595,12.69805 16.33028,25.82015 24.75158,39.15673 4.56226,6.74458 7.78429,13.42318 11.37265,20.10233 3.50043,6.71516 7.20594,13.26928 10.55977,20.04986 2.96577,6.99354 5.93172,13.97958 8.89017,20.95157 l 4.40122,10.362 3.30266,10.67695 c 0.38078,1.21562 0.74694,2.39454 1.12773,3.60297 -0.52725,0.13914 -1.07648,0.29292 -1.66232,0.4467 -7.19845,1.80878 -10.86011,2.73143 -10.86011,2.73143 l 12.63225,-2.77548 c 1.77217,5.67526 3.5443,11.34339 5.29452,16.92341 1.83808,6.99356 2.96576,14.14083 4.46702,20.99471 1.26687,6.94217 3.09024,13.53303 3.87386,20.32917 0.72499,6.80309 1.44997,13.45243 2.13827,19.93363 0.6371,6.48081 1.53052,12.6688 1.92588,18.80505 0.16843,6.20261 0.33686,12.20013 0.49796,17.9487 0.15378,11.54099 1.01057,21.85892 0.53459,31.36362 -0.33687,9.45408 -0.6371,17.69242 -0.8861,24.48725 -0.476,13.49629 -0.75426,21.22904 -0.75426,21.22904 h 134.693 c 0,0 -0.61513,-4.90646 -1.67697,-13.49631 -0.53459,-4.31329 -1.18633,-9.55662 -1.93318,-15.55414 -0.87877,-6.06351 -1.22294,-12.71268 -1.91126,-20.10985 -0.5712,-7.35235 -1.47925,-15.4516 -1.655,-23.79173 -0.21969,-8.35551 -0.99593,-17.40691 -0.73962,-26.47256 0.0292,-9.14644 0.008,-18.68094 0.71765,-28.21601 0.32222,-9.65898 1.51586,-19.28872 2.49709,-29.10087 1.39139,-9.72498 2.76087,-19.53056 4.72329,-29.24897 1.80148,-9.75422 3.98373,-19.35434 6.12932,-29.00714 1.01057,-4.56225 2.03573,-9.12451 3.00982,-13.64271 3.84463,6.48082 9.49795,12.03179 17.73629,15.42235 26.76501,11.02114 29.92948,4.51089 42.39994,8.68509 4.23269,-12.4564 11.32147,-11.02846 18.76194,-39.00301 7.44047,-27.97455 -19.65429,-48.25087 -32.51468,-55.08412 -7.74774,-4.12283 -20.23357,-11.16755 -28.94152,-16.13269 9.03658,4.33524 21.95453,10.56709 29.75325,14.58737 12.94702,6.66397 45.05077,17.38479 63.79021,-4.67211 18.75444,-22.05764 13.54035,-27.07245 21.36214,-37.6401 -10.54516,-7.85759 -6.99354,-14.16275 -31.30551,-29.87887 z M 463.22335,176.06404 c -1.74289,-1.14241 -3.56624,-2.34337 -5.47767,-3.60298 0,0 -0.0293,-0.0146 -0.0293,-0.0293 -0.30026,-0.46134 -1.0765,-1.39139 -1.91126,-2.02111 2.62158,1.99187 5.10423,3.88118 7.41817,5.65332 z M 206.42779,320.23925 c -0.99594,-1.26689 -2.03574,-2.59965 -3.12699,-4.00567 0,0 -0.008,-0.0146 -0.008,-0.0146 -0.1099,-0.41742 -0.44671,-1.29618 -0.90806,-1.96262 1.43529,2.10904 2.78279,4.10821 4.04221,5.9829 z m 306.73739,141.68559 c -0.65906,-1.20829 -1.34009,-2.47515 -2.05784,-3.80787 0,-0.008 -0.0146,-0.0366 -0.0146,-0.0366 -0.0366,-0.37348 -0.18307,-1.15704 -0.476,-1.78681 0.90074,1.98456 1.75753,3.87387 2.54846,5.6314 z m -59.11096,168.44499 c -4.02028,10.25233 -8.2824,20.57852 -11.57774,30.97558 -2.11634,5.90228 -3.92523,11.7607 -5.64601,17.59718 -0.13914,-0.62245 -0.29292,-1.22293 -0.42473,-1.84541 -1.67698,-7.16189 -3.39789,-14.52156 -5.17003,-22.05764 -1.83075,-7.49878 -4.79659,-15.04873 -7.22057,-22.74566 -2.65101,-7.65982 -4.97226,-15.52472 -8.04075,-23.25746 -1.64036,-3.66877 -3.3319,-7.40354 -4.98706,-11.10905 l 10.53053,-2.31413 c 0,0 -3.61029,0.70301 -10.6477,2.05786 -1.75753,-3.90313 -3.4858,-7.76968 -5.26526,-11.70953 l -5.26527,-11.6143 -1.42799,-2.5044 c -0.67372,-2.87053 -1.26689,-5.9096 -1.51586,-9.21243 -0.8861,-7.71849 -1.88931,-16.42551 -2.98039,-25.92327 -0.0586,-9.57125 -0.41009,-19.99173 -0.34418,-31.06368 0.51262,-5.52153 1.04719,-11.19698 1.58911,-16.9894 0.53459,-5.80724 0.9227,-11.78284 2.20427,-17.75842 1.05451,-6.01214 2.13827,-12.12701 3.22953,-18.31482 1.01057,-6.11469 2.89265,-12.16357 4.34254,-18.35156 0.28559,5.52154 1.49391,12.83002 6.25379,25.16964 10.42067,27.00683 44.26714,27.483 58.68729,25.45459 8.6997,-1.22294 22.965,-2.85591 32.93837,-3.9691 -9.86408,1.80878 -23.99795,4.35715 -32.68341,5.69007 -14.38977,2.21157 -46.663,12.41253 -48.86577,41.27326 -2.20426,28.8609 4.95762,29.84887 4.84777,43.00735 13.1521,0.17575 13.99421,7.35236 42.89112,5.7778 4.51089,-0.24898 8.53136,-1.29618 12.20013,-2.84128 -4.50358,8.45806 -9.36616,17.48001 -13.97228,26.91122 -4.85508,9.49064 -9.2563,19.54556 -13.67945,29.66516 z"
     id="path2"
     inkscape:connector-curvature="0"
     style="stroke-width:1.87469375" />
</svg>
