<?xml version="1.0" encoding="UTF-8" standalone="no"?>
<svg
   xmlns:dc="http://purl.org/dc/elements/1.1/"
   xmlns:cc="http://creativecommons.org/ns#"
   xmlns:rdf="http://www.w3.org/1999/02/22-rdf-syntax-ns#"
   xmlns:svg="http://www.w3.org/2000/svg"
   xmlns="http://www.w3.org/2000/svg"
   xmlns:sodipodi="http://sodipodi.sourceforge.net/DTD/sodipodi-0.dtd"
   xmlns:inkscape="http://www.inkscape.org/namespaces/inkscape"
   class="ionicon"
   viewBox="0 0 512 512"
   version="1.1"
   id="svg12"
   sodipodi:docname="delegate.svg"
   inkscape:version="0.92.5 (2060ec1f9f, 2020-04-08)">
  <metadata
     id="metadata18">
    <rdf:RDF>
      <cc:Work
         rdf:about="">
        <dc:format>image/svg+xml</dc:format>
        <dc:type
           rdf:resource="http://purl.org/dc/dcmitype/StillImage" />
        <dc:title>People</dc:title>
      </cc:Work>
    </rdf:RDF>
  </metadata>
  <defs
     id="defs16" />
  <sodipodi:namedview
     pagecolor="#ffffff"
     bordercolor="#666666"
     borderopacity="1"
     objecttolerance="10"
     gridtolerance="10"
     guidetolerance="10"
     inkscape:pageopacity="0"
     inkscape:pageshadow="2"
     inkscape:window-width="1856"
     inkscape:window-height="1016"
     id="namedview14"
     showgrid="false"
     inkscape:zoom="0.6525"
     inkscape:cx="254.46743"
     inkscape:cy="256"
     inkscape:window-x="64"
     inkscape:window-y="27"
     inkscape:window-maximized="1"
     inkscape:current-layer="svg12" />
  <title
     id="title2">People</title>
  <path
     d="m 402,232 c -2.93,40.67 -33.1,72 -66,72 -32.9,0 -63.12,-31.32 -66,-72 -3,-42.31 26.37,-72 66,-72 39.63,0 69,30.46 66,72 z"
     id="path4"
     inkscape:connector-curvature="0"
     style="stroke:currentColor;stroke-width:32;stroke-linecap:round;stroke-linejoin:round" />
  <path
     d="m 336,368 c -65.17,0 -127.84,32.37 -143.54,95.41 -2.08,8.34 3.15,16.59 11.72,16.59 h 263.65 c 8.57,0 13.77,-8.25 11.72,-16.59 C 463.85,399.36 401.18,368 336,368 Z"
     stroke-miterlimit="10"
     id="path6"
     inkscape:connector-curvature="0"
     style="stroke:currentColor;stroke-width:32;stroke-miterlimit:10" />
  <path
     d="M 200,87.94 C 197.66,120.42 173.28,146 147,146 120.72,146 96.3,120.43 94,87.94 91.61,54.15 115.34,30 147,30 c 31.66,0 55.39,24.77 53,57.94 z"
     id="path8"
     inkscape:connector-curvature="0"
     style="stroke:currentColor;stroke-width:32;stroke-linecap:round;stroke-linejoin:round" />
  <path
     d="M 61.588746,225.4979 C 47.619348,237.55145 37.191039,253.32798 32.35,272.75 c -1.65,6.66 2.656992,11.93808 9.37,13.25 l 161.36033,33.62712"
     stroke-miterlimit="10"
     id="path10"
     inkscape:connector-curvature="0"
     style="fill:none;stroke:currentColor;stroke-width:32;stroke-linecap:round;stroke-miterlimit:10"
     sodipodi:nodetypes="ccsc" />
  <path
     d="M 104.31142,386.32996 208.31094,323.07123 141.4079,216.48755"
     stroke-miterlimit="10"
     id="path10-7"
     inkscape:connector-curvature="0"
     style="fill:none;stroke:currentColor;stroke-width:32;stroke-linecap:round;stroke-miterlimit:10"
     sodipodi:nodetypes="ccc" />
</svg>
