<?xml version="1.0" encoding="UTF-8" standalone="no"?>
<svg
   xmlns:dc="http://purl.org/dc/elements/1.1/"
   xmlns:cc="http://creativecommons.org/ns#"
   xmlns:rdf="http://www.w3.org/1999/02/22-rdf-syntax-ns#"
   xmlns:svg="http://www.w3.org/2000/svg"
   xmlns="http://www.w3.org/2000/svg"
   xmlns:sodipodi="http://sodipodi.sourceforge.net/DTD/sodipodi-0.dtd"
   xmlns:inkscape="http://www.inkscape.org/namespaces/inkscape"
   viewBox="0 0 512 512"
   version="1.1"
   id="svg4"
   sodipodi:docname="md-norefresh.svg"
   inkscape:version="0.92.3 (2405546, 2018-03-11)">
  <metadata
     id="metadata10">
    <rdf:RDF>
      <cc:Work
         rdf:about="">
        <dc:format>image/svg+xml</dc:format>
        <dc:type
           rdf:resource="http://purl.org/dc/dcmitype/StillImage" />
        <dc:title></dc:title>
      </cc:Work>
    </rdf:RDF>
  </metadata>
  <defs
     id="defs8" />
  <sodipodi:namedview
     pagecolor="#ffffff"
     bordercolor="#666666"
     borderopacity="1"
     objecttolerance="10"
     gridtolerance="10"
     guidetolerance="10"
     inkscape:pageopacity="0"
     inkscape:pageshadow="2"
     inkscape:window-width="1853"
     inkscape:window-height="1025"
     id="namedview6"
     showgrid="false"
     inkscape:zoom="1.3037281"
     inkscape:cx="256"
     inkscape:cy="256"
     inkscape:window-x="67"
     inkscape:window-y="27"
     inkscape:window-maximized="1"
     inkscape:current-layer="svg4" />
  <path
     d="M256 388c-72.597 0-132-59.405-132-132 0-72.601 59.403-132 132-132 36.3 0 69.299 15.4 92.406 39.601L278 234h154V80l-51.698 51.702C348.406 99.798 304.406 80 256 80c-96.797 0-176 79.203-176 176s78.094 176 176 176c81.045 0 148.287-54.134 169.401-128H378.85c-18.745 49.561-67.138 84-122.85 84z"
     id="path2" />
  <g
     id="g18"
     transform="rotate(45,73.563702,177.8649)">
    <rect
       style="fill:#ffffff"
       y="73.258217"
       x="9.2043734"
       height="64.430611"
       width="493.96802"
       id="rect14" />
    <rect
       y="82.462593"
       x="17.641714"
       height="46.021866"
       width="475.55927"
       id="rect12" />
  </g>
</svg>
