<?xml version="1.0" encoding="UTF-8" standalone="no"?>
<svg
   xmlns:dc="http://purl.org/dc/elements/1.1/"
   xmlns:cc="http://creativecommons.org/ns#"
   xmlns:rdf="http://www.w3.org/1999/02/22-rdf-syntax-ns#"
   xmlns:svg="http://www.w3.org/2000/svg"
   xmlns="http://www.w3.org/2000/svg"
   xmlns:sodipodi="http://sodipodi.sourceforge.net/DTD/sodipodi-0.dtd"
   xmlns:inkscape="http://www.inkscape.org/namespaces/inkscape"
   viewBox="0 0 512 512"
   version="1.1"
   id="svg4"
   sodipodi:docname="md-needsrefresh.svg"
   inkscape:version="0.92.3 (2405546, 2018-03-11)">
  <metadata
     id="metadata10">
    <rdf:RDF>
      <cc:Work
         rdf:about="">
        <dc:format>image/svg+xml</dc:format>
        <dc:type
           rdf:resource="http://purl.org/dc/dcmitype/StillImage" />
        <dc:title></dc:title>
      </cc:Work>
    </rdf:RDF>
  </metadata>
  <defs
     id="defs8" />
  <sodipodi:namedview
     pagecolor="#ffffff"
     bordercolor="#666666"
     borderopacity="1"
     objecttolerance="10"
     gridtolerance="10"
     guidetolerance="10"
     inkscape:pageopacity="0"
     inkscape:pageshadow="2"
     inkscape:window-width="1853"
     inkscape:window-height="1025"
     id="namedview6"
     showgrid="false"
     inkscape:zoom="1.3037281"
     inkscape:cx="120.2355"
     inkscape:cy="256"
     inkscape:window-x="67"
     inkscape:window-y="27"
     inkscape:window-maximized="1"
     inkscape:current-layer="svg4" />
  <path
     d="M 208,388 C 135.403,388 76,328.595 76,256 c 0,-72.601 59.403,-132 132,-132 36.3,0 69.299,15.4 92.406,39.601 L 230,234 H 384 V 80 l -51.698,51.702 C 300.406,99.798 256.406,80 208,80 111.203,80 32,159.203 32,256 c 0,96.797 78.094,176 176,176 81.045,0 148.287,-54.134 169.401,-128 H 330.85 C 312.105,353.561 263.712,388 208,388 Z"
     id="path2"
     inkscape:connector-curvature="0" />
  <g
     id="g18"
     transform="rotate(45,49.563702,119.92379)">
    <rect
       style="fill:#ffffff"
       y="73.258217"
       x="9.2043734"
       height="64.430611"
       width="493.96802"
       id="rect14" />
    <rect
       y="82.462593"
       x="17.641714"
       height="46.021866"
       width="475.55927"
       id="rect12" />
  </g>
  <path
     d="m 483.57442,276.91927 h -48 v -137 h 48 z m 0,95 h -48 v -48 h 48 z"
     id="path2-3"
     inkscape:connector-curvature="0" />
</svg>
